<svg xmlns="http://www.w3.org/2000/svg" xmlns:xlink="http://www.w3.org/1999/xlink"><defs><symbol fill="none" viewBox="0 0 25 24" id="ic-dashboard-address"><path fill-rule="evenodd" clip-rule="evenodd" d="M5.713 0h17.882c.39 0 .706.315.706.706v22.588c0 .39-.316.706-.706.706H2.936a.71.71 0 01-.499-.212.705.705 0 01-.207-.499l.024-7.67-.88.541a.697.697 0 01-.716.014.72.72 0 01-.357-.621l.033-3.83a.7.7 0 01.334-.594L9.02 5.986a.707.707 0 01.739 0l5.708 3.501h4.358a.705.705 0 110 1.412h-2.057l.372.23a.703.703 0 01.339.603v1.317h1.346a.705.705 0 110 1.412H18.48v1.097a.71.71 0 01-.706.706.689.689 0 01-.367-.104l-.852-.522v6.95h6.334V1.412H6.419v3.807a.705.705 0 11-1.412 0V.706c0-.39.315-.706.706-.706zm3.68 7.416L1.74 12.127l-.014 2.16.753-.461c.07-.07.16-.123.254-.155l6.291-3.86a.689.689 0 01.368-.103c.127 0 .254.033.367.104l6.258 3.835a.693.693 0 01.363.221l.692.424v-2.17l-7.68-4.706zM8.14 17.76v4.828h2.851V17.76H8.142zm4.259 4.828h2.743v-7.82l-5.75-3.526-5.723 3.506-.028 7.84h3.082v-5.534c0-.39.316-.706.706-.706h4.264c.39 0 .706.316.706.706v5.534zm8.136-15.952c0 .39-.315.705-.706.705h-5.647a.705.705 0 110-1.411h5.647c.39 0 .706.315.706.706z" fill="var(--fill-color1)" /></symbol><symbol fill="none" viewBox="0 0 48 48" id="ic-dashboard-cfds"><path fill-rule="evenodd" clip-rule="evenodd" d="M39 0a9 9 0 019 9v30a9 9 0 01-9 9H9a9 9 0 01-9-9V9a9 9 0 019-9h30z" fill="#33658A" /><path fill-rule="evenodd" clip-rule="evenodd" d="M16.083 23.167a7.077 7.077 0 007.084-7.084A7.077 7.077 0 0016.083 9 7.077 7.077 0 009 16.083a7.077 7.077 0 007.083 7.084zm.125-6.542l-.708-.167c-1-.208-1.5-.75-1.5-1.583s.542-1.458 1.458-1.625v-1h1.292v1.042c.875.208 1.458.791 1.458 1.583h-1.083c-.042-.417-.458-.708-1-.708s-.958.25-.958.666c0 .334.25.542.916.667l.667.125c1.083.25 1.583.708 1.583 1.542 0 .916-.583 1.541-1.583 1.708v1.042h-1.292v-1.042c-.958-.167-1.541-.75-1.583-1.583H15c.042.458.5.75 1.167.75.583 0 1-.292 1-.709-.042-.375-.292-.541-.959-.708zM38.167 32.25L26.5 28.958l-.833-1.458c-.375-.625-1.042-1.042-1.792-1.042s-1.417.375-1.792 1.042l-.083.167-11.542-3.25C9.708 24.208 9 24.792 9 25.542c0 .5.333.958.833 1.125L20.75 29.75 15.292 39h17.166l-4.25-7.167 9.334 2.625c.75.209 1.458-.333 1.458-1.125 0-.5-.333-.916-.833-1.083zm-18.875 4.458l4.375-7.416c.083-.125.291-.125.375 0l4.375 7.416h-9.125zM39 24.042a4.374 4.374 0 11-8.75 0 4.374 4.374 0 018.75 0zm-4.709.208l.417.083c.375.125.542.209.542.417 0 .25-.25.417-.584.417-.375 0-.625-.167-.666-.417h-.667c0 .5.375.875.917.958v.625H35v-.625c.583-.083.916-.458.916-1 0-.5-.25-.791-.916-.916l-.375-.084c-.375-.125-.542-.208-.542-.416 0-.25.25-.417.583-.417.292 0 .542.167.584.417h.666c0-.459-.375-.792-.875-.917v-.625h-.75v.625c-.541.125-.875.458-.875.958 0 .5.292.792.875.917z" fill="#fff" /></symbol><symbol fill="none" viewBox="0 0 24 24" id="ic-dashboard-check"><circle cx="12" cy="12" r="8" fill="#fff" /><path d="M12 0C5.375 0 0 5.375 0 12s5.375 12 12 12 12-5.375 12-12S18.625 0 12 0zm5.205 9.47l-6.475 6.475a.997.997 0 01-.705.295c-.255 0-.51-.1-.705-.295L6.795 13.42a1.002 1.002 0 010-1.415c.39-.39 1.025-.39 1.415 0l1.815 1.815 5.77-5.77c.39-.39 1.025-.39 1.415 0 .39.39.39 1.03-.005 1.42z" fill="var(--fill-color1)" /></symbol><symbol fill="none" viewBox="0 0 48 48" id="ic-dashboard-commodity"><path fill-rule="evenodd" clip-rule="evenodd" d="M8.998 0h30.004A8.998 8.998 0 0148 8.998v30.004A8.998 8.998 0 0139.002 48H8.998A8.998 8.998 0 010 39.002V8.998A8.998 8.998 0 018.998 0" fill="#33658A" /><path d="M10.878 24a.5.5 0 00-.459.301l-4.116 9.5a.5.5 0 00.459.699h17.976a.5.5 0 00.46-.699l-4.117-9.5a.5.5 0 00-.46-.301h-9.743z" fill="#fff" /><path d="M27.378 24a.5.5 0 00-.459.301l-4.116 9.5a.5.5 0 00.459.699h17.976a.5.5 0 00.46-.699l-4.117-9.5a.5.5 0 00-.46-.301h-9.743z" fill="#fff" /><path d="M19.128 13.5a.5.5 0 00-.459.301l-4.116 9.5a.5.5 0 00.459.699h17.976a.5.5 0 00.46-.699l-4.117-9.5a.5.5 0 00-.46-.301h-9.743z" fill="#fff" /></symbol><symbol fill="none" viewBox="0 0 48 48" id="ic-dashboard-crypto"><path fill-rule="evenodd" clip-rule="evenodd" d="M39 0a9 9 0 019 9v30a9 9 0 01-9 9H9a9 9 0 01-9-9V9a9 9 0 019-9h30z" fill="#33658A" /><path d="M23.953 31.123a6.933 6.933 0 01-6.934-6.934 6.933 6.933 0 016.934-6.934c2.047 0 3.962.858 5.283 2.377L33 16.396c-1.32-1.585-3.038-2.707-4.953-3.368V9h-2.311v3.368c-.595-.066-1.189-.132-1.783-.132-.66 0-1.255.066-1.915.132V9h-2.312v4.028C15.236 14.745 12 19.104 12 24.188c0 5.086 3.236 9.444 7.726 11.161v4.028h2.312v-3.434c.594.066 1.255.133 1.915.133.594 0 1.189-.067 1.783-.133v3.434h2.311v-3.962c1.915-.66 3.566-1.849 4.953-3.368l-3.83-3.302a6.927 6.927 0 01-5.217 2.378z" fill="#fff" /></symbol><symbol fill="none" viewBox="0 0 25 24" id="ic-dashboard-currency"><path fill-rule="evenodd" clip-rule="evenodd" d="M16.837 8.47c-.254 0-.504.015-.748.038.023-.244.042-.494.042-.743a7.75 7.75 0 00-2.358-5.563 6.28 6.28 0 013.064-.79 6.363 6.363 0 016.226 7.623.707.707 0 001.383.283c.104-.509.156-1.03.156-1.553C24.602 3.482 21.119 0 16.837 0a7.707 7.707 0 00-4.24 1.261A7.71 7.71 0 008.367 0C4.083 0 .601 3.482.601 7.765c0 3.811 2.837 7.11 6.602 7.68l.012.001c.033.004.062.008.091.008.344 0 .645-.25.697-.602a.71.71 0 00-.593-.805c-3.078-.461-5.398-3.162-5.398-6.282a6.363 6.363 0 016.353-6.353 6.363 6.363 0 016.353 6.353c0 .348-.037.691-.094 1.03-3.205.956-5.553 3.93-5.553 7.44a7.75 7.75 0 002.358 5.563 6.28 6.28 0 01-3.064.79 6.362 6.362 0 01-6.273-7.355.7.7 0 00-.588-.805.708.708 0 00-.81.584 8.192 8.192 0 00-.093 1.223C.602 20.518 4.084 24 8.366 24a7.707 7.707 0 004.24-1.261A7.71 7.71 0 0016.836 24c4.283 0 7.766-3.482 7.766-7.765 0-4.282-3.483-7.764-7.765-7.764zm0 14.118a6.362 6.362 0 01-6.353-6.353 6.363 6.363 0 016.353-6.353 6.363 6.363 0 016.353 6.353 6.362 6.362 0 01-6.353 6.353zm.358-6.978c-.871-.245-1.064-.405-1.064-.762 0-.25.15-.56.673-.56.621 0 .73.367.786.592h1.153c-.061-.635-.42-1.256-1.43-1.411v-.523h-.97v.537c-.772.146-1.38.654-1.38 1.477 0 .763.4 1.271 1.775 1.666.753.217.965.41.965.81 0 .324-.193.611-.796.611-.484 0-.809-.263-.903-.682H14.86c.062.786.603 1.355 1.544 1.501v.654h.974v-.658c.89-.132 1.492-.645 1.492-1.563-.005-.86-.461-1.35-1.675-1.69zm-8.688-5.182v.904H7.67v-.899H6.258V5.266H7.67v-.899h.842v.899c.31.005.555.019.725.047.202.033.38.104.54.212.156.108.293.254.396.433.108.179.16.38.16.602 0 .245-.066.466-.197.668a1.223 1.223 0 01-.532.457c.315.094.555.25.724.47.17.222.255.485.255.782 0 .235-.057.465-.165.687-.108.22-.259.4-.447.531a1.535 1.535 0 01-.701.245 9.671 9.671 0 01-.763.028zm-1.21-1.727v.871h.96c.377 0 .617-.014.716-.033a.663.663 0 00.381-.207c.1-.108.146-.254.146-.438a.675.675 0 00-.113-.395.624.624 0 00-.324-.235c-.146-.052-.452-.076-.928-.076h-.089v-.86c.367 0 .598-.01.692-.02a.678.678 0 00.423-.183.55.55 0 00.156-.405.561.561 0 00-.132-.39.581.581 0 00-.395-.184c-.104-.014-.405-.019-.895-.019h-.597v2.574z" fill="var(--fill-color1)" /></symbol><symbol fill="none" viewBox="0 0 48 49" id="ic-dashboard-forex"><path fill-rule="evenodd" clip-rule="evenodd" d="M39 .33a9 9 0 019 9v30a9 9 0 01-9 9H9a9 9 0 01-9-9v-30a9 9 0 019-9h30z" fill="#33658A" /><path fill-rule="evenodd" clip-rule="evenodd" d="M7.5 12.33H24v6H13.5v4.5H21v4.5h-7.5v9h-6v-24z" fill="#fff" /><path fill-rule="evenodd" clip-rule="evenodd" d="M19.5 12.33l6.75 11.25-6.75 12.75h6l4.5-7.5 4.5 7.5h6l-6.75-12.75 6.75-11.25h-6.75l-3.75 6-3.75-6H19.5z" fill="#fff" /></symbol><symbol fill="none" viewBox="0 0 25 24" id="ic-dashboard-personal-details"><path fill-rule="evenodd" clip-rule="evenodd" d="M6.111 0h17.882c.39 0 .706.315.706.706v22.588c0 .39-.315.706-.706.706h-7.858a.705.705 0 110-1.412h7.152V1.412H6.818v2.334a.705.705 0 11-1.412 0V.706c0-.39.316-.706.706-.706zm10.353 7.341H13.17a.705.705 0 110-1.411h3.294a.705.705 0 110 1.411zm-3.294 3.563h7.058a.705.705 0 100-1.412H13.17a.705.705 0 100 1.412zm7.058 3.558H13.17a.705.705 0 110-1.412h7.058a.705.705 0 110 1.412zm-13.124-.547a3.948 3.948 0 003.944-3.943 3.948 3.948 0 00-3.944-3.944 3.948 3.948 0 00-3.943 3.944 3.948 3.948 0 003.943 3.943zm0-6.475a2.533 2.533 0 11-.001 5.065 2.533 2.533 0 01.001-5.065zm-1.426 7.9H8.53a4.955 4.955 0 014.946 4.947v.01l-.033 3.006a.706.706 0 01-.706.697H1.405a.71.71 0 01-.706-.716l.033-3.002a4.95 4.95 0 014.946-4.941zM2.12 22.589h9.92l.024-2.306a3.538 3.538 0 00-3.534-3.53H5.678a3.539 3.539 0 00-3.534 3.535l-.024 2.3z" fill="var(--fill-color1)" /></symbol><symbol fill="none" viewBox="0 0 48 48" id="ic-dashboard-stock"><path fill-rule="evenodd" clip-rule="evenodd" d="M39 0a9 9 0 019 9v30a9 9 0 01-9 9H9a9 9 0 01-9-9V9a9 9 0 019-9h30z" fill="#33658A" /><path d="M23.382 39c-1.665 0-3.12-2.714-3.897-6.748h7.796C26.5 36.286 25.048 39 23.382 39zm-2.647-.593c-2.19-1.01-4.022-3.238-5.148-6.156l2.804.001c.525 2.615 1.344 4.766 2.344 6.155zm5.296-.001c.999-1.389 1.818-3.54 2.342-6.155l2.804.002c-1.125 2.917-2.958 5.144-5.146 6.153zm-8.04-.525a13.557 13.557 0 01-6.302-5.63h2.71c.831 2.305 2.076 4.25 3.591 5.63zm10.783 0c1.516-1.38 2.76-3.325 3.592-5.629h2.709a13.55 13.55 0 01-6.3 5.628zM11.57 24.374c.553 0 1.122.028 1.71.083a25.67 25.67 0 00-.023 1.042c0 1.994.276 3.894.777 5.626l-2.927.001a13.45 13.45 0 01-1.192-6.58 7.398 7.398 0 011.655-.172zm2.832.218c1.047.152 2.159.382 3.356.69v.217c0 1.994.153 3.894.43 5.626h-2.99a19.288 19.288 0 01-.816-5.626l.006-.504.014-.403zm4.48.993l.61.176c.89.263 1.772.544 2.832.9l.546.185 3.43 1.181c.516.176 1.006.341 1.47.495a34.324 34.324 0 01-.295 2.603h-8.184a37.443 37.443 0 01-.409-5.54zm9.975 3.292c1.185.381 2.19.68 3.063.905-.102.46-.22.907-.354 1.343h-2.99c.11-.691.202-1.41.271-2.15l.01-.098zm4.154 1.16c1.204.25 2.14.325 2.996.253-.108.283-.224.562-.35.835H32.73c.094-.326.18-.658.258-.996l.022-.092zm3.871-4.538c0 .428-.02.852-.059 1.27-.951.218-1.941.223-3.35-.046.023-.404.034-.812.034-1.224 0-1.993-.276-3.893-.776-5.624l2.927-.002a13.45 13.45 0 011.224 5.626zm-4.5 0c0 .328-.008.654-.023.976-.927-.23-2.021-.554-3.35-.982 0-1.99-.154-3.889-.432-5.619h2.99c.523 1.712.815 3.617.815 5.625zm-4.501-.378c-.347-.115-.708-.236-1.084-.364l-.577-.196-2.585-.893a95.128 95.128 0 00-3.39-1.106l-.434-.13-.593-.171a59.11 59.11 0 00-.203-.057c.068-.808.16-1.587.274-2.33h8.185c.246 1.604.39 3.378.407 5.247zm-9.954-3.207a33.518 33.518 0 00-3.094-.645c.105-.477.227-.943.365-1.395h2.99a33.003 33.003 0 00-.26 2.04zm-4.208-.796a20.508 20.508 0 00-2.15-.119c-.323 0-.635.015-.934.046.14-.4.297-.79.472-1.171h2.926c-.117.406-.222.82-.314 1.244zm4.271-8c-1.515 1.38-2.76 3.325-3.592 5.63h-2.71a13.552 13.552 0 016.302-5.63zm2.744-.525c-1 1.39-1.819 3.54-2.343 6.155l-2.805.001c1.126-2.918 2.959-5.146 5.148-6.156zM23.382 12c1.666 0 3.12 2.715 3.898 6.75h-7.797c.78-4.035 2.233-6.75 3.9-6.75zm2.649.594c2.189 1.01 4.022 3.238 5.147 6.156l-2.803.001c-.51-2.536-1.295-4.637-2.254-6.029l-.09-.128zm2.743.526a13.554 13.554 0 016.302 5.63h-2.71c-.809-2.244-2.01-4.146-3.47-5.519l-.122-.111z" fill="#fff" /><path d="M36.235 22.132c1.946-.3 3.888.75 4.53 2.345.727 1.809-.423 3.554-3.158 4.374l-.296.084c-2.36.626-4.549.169-11.01-2.032l-3.43-1.18a83.81 83.81 0 00-3.378-1.085c-3.101-.916-5.648-1.388-7.922-1.388-2.96 0-4.53 1.389-4.442 3.22.083 1.756 1.661 3.134 3.837 2.97a.562.562 0 11.085 1.121c-2.805.212-4.932-1.646-5.046-4.038-.12-2.52 2.004-4.398 5.566-4.398 2.25 0 4.715.43 7.648 1.262l.593.171c1.159.343 2.301.714 3.824 1.237l2.585.892c6.763 2.314 8.857 2.749 11.063 2.087 2.157-.647 2.888-1.756 2.437-2.877-.443-1.101-1.875-1.875-3.315-1.653a.562.562 0 11-.17-1.112z" fill="#fff" /></symbol><symbol fill="none" viewBox="0 0 48 48" id="ic-dashboard-stock-indice"><path fill-rule="evenodd" clip-rule="evenodd" d="M39 0a9 9 0 019 9v30a9 9 0 01-9 9H9a9 9 0 01-9-9V9a9 9 0 019-9h30z" fill="#33658A" /><path fill-rule="evenodd" clip-rule="evenodd" d="M36.5 14c-.292 0-.583-.083-.833-.167L30.333 20.5c.209.375.334.792.334 1.25 0 1.375-1.125 2.5-2.5 2.5a2.507 2.507 0 01-2.5-2.5c0-.292.041-.583.125-.833l-4.625-4c-.375.208-.834.375-1.334.375a2.9 2.9 0 01-1.041-.209l-5.084 6c.167.334.292.75.292 1.167 0 1.375-1.125 2.5-2.5 2.5a2.507 2.507 0 01-2.5-2.5c0-1.375 1.125-2.5 2.5-2.5.417 0 .833.083 1.167.292l5.041-5.959a2.243 2.243 0 01-.375-1.291c0-1.375 1.125-2.5 2.5-2.5s2.5 1.125 2.5 2.5c0 .375-.083.708-.208 1l4.542 3.958c.416-.333.958-.5 1.5-.5.375 0 .75.083 1.083.25l5.25-6.542A2.293 2.293 0 0134 11.5c0-1.375 1.125-2.5 2.5-2.5s2.5 1.125 2.5 2.5-1.125 2.5-2.5 2.5zm0 2.959a2.507 2.507 0 00-2.5 2.5V36.5c0 1.375 1.125 2.5 2.5 2.5s2.5-1.125 2.5-2.5V19.46a2.48 2.48 0 00-2.5-2.5zm-16.666 3.874a2.507 2.507 0 00-2.5 2.5V36.5c0 1.375 1.125 2.5 2.5 2.5s2.5-1.125 2.5-2.5V23.333c0-1.375-1.125-2.5-2.5-2.5zM11.5 28.46a2.507 2.507 0 00-2.5 2.5v5.54c0 1.375 1.125 2.5 2.5 2.5s2.5-1.125 2.5-2.5v-5.54c0-1.375-1.125-2.5-2.5-2.5zm14.167-.042c0-1.375 1.125-2.5 2.5-2.5a2.48 2.48 0 012.5 2.5V36.5c0 1.375-1.125 2.5-2.5 2.5a2.507 2.507 0 01-2.5-2.5v-8.083z" fill="#fff" /></symbol><symbol fill="none" viewBox="0 0 48 49" id="ic-dashboard-synthetic"><path fill-rule="evenodd" clip-rule="evenodd" d="M39 .33a9 9 0 019 9v30a9 9 0 01-9 9H9a9 9 0 01-9-9v-30a9 9 0 019-9h30z" fill="#33658A" /><path fill-rule="evenodd" clip-rule="evenodd" d="M19.5 15.33l1.5-.75-1.5-4.5H33l-9 12.75-1.5-3.75-1.5.75 1.5 3.75H9l9-12.75 1.5 4.5zM8.25 25.08H22.5l-3 3.75 1.5.75 3-3.75 6 12.75H15.75l3-4.5-1.5-.75-3 4.5-6-12.75zm26.25-15l6 13.5h-6v1.5h6l-9 12.75-6.75-13.5 9.75-14.25z" fill="#fff" /></symbol><symbol fill="none" viewBox="0 0 25 24" id="ic-dashboard-terms-of-use"><path fill-rule="evenodd" clip-rule="evenodd" d="M24.884 5.294a.283.283 0 00-.018-.063l-.005-.017-.003-.012-.004-.014-.007-.026a1.24 1.24 0 00-.043-.08c-.01-.014-.014-.028-.023-.037-.013-.022-.03-.04-.046-.058l-.013-.014a.519.519 0 01-.012-.013c-.005-.005-.01-.014-.014-.019L19.99.216a.685.685 0 00-.108-.089l-.028-.014A.598.598 0 0019.76.06l-.043-.014a1.08 1.08 0 00-.09-.028.486.486 0 00-.14-.019H6.78a.705.705 0 00-.706.706v5.322h-4.47a.705.705 0 00-.707.706v10.532a.706.706 0 001.153.546l3.08-2.541 3.078 2.54a.69.69 0 00.451.16.706.706 0 00.706-.706V6.736a.705.705 0 00-.706-.707H7.487V1.412H18.78V5.43c0 .39.315.705.706.705h4v16.452h-16v-3.736a.705.705 0 10-1.412 0v4.442c0 .39.315.706.706.706h17.412c.39 0 .705-.315.705-.706V5.431a.64.64 0 00-.014-.137zM7.948 15.77l-2.372-1.957a.707.707 0 00-.899-.005L2.31 15.77V7.44h5.638v8.33zM20.193 2.414l2.3 2.31h-2.3v-2.31zm-8.47 7.562c0 .391.314.706.705.706h8a.705.705 0 100-1.411h-8a.705.705 0 00-.706.705zm4.705-3.36h-4a.705.705 0 110-1.41h4a.705.705 0 110 1.41zm4 8.133a.705.705 0 100-1.412h-8a.705.705 0 100 1.412h8zm.706 3.354c0 .39-.315.706-.706.706h-8a.705.705 0 110-1.412h8c.39 0 .706.316.706.706z" fill="var(--fill-color1)" /></symbol><symbol fill="none" viewBox="0 0 25 24" id="ic-dashboard-wallet"><g clip-path="url(#ic-dashboard-wallet_clip0)"><path d="M.5 2.997A3 3 0 013.5 0h14.25a3.75 3.75 0 013.75 3.75l.002 1.5a3.747 3.747 0 011.466 2.511l.024.242.008.247.002 3a3.744 3.744 0 011.498 3v1.5a3.744 3.744 0 01-1.498 3L23 20.25a3.75 3.75 0 01-3.503 3.742L19.25 24h-15a3.75 3.75 0 01-3.742-3.503L.5 20.25V2.997zM2 5.599V20.25c0 1.17.892 2.13 2.033 2.24l.217.01h15a2.25 2.25 0 002.24-2.033l.01-.217v-.825c-.242.05-.493.075-.75.075h-3A3.75 3.75 0 0114 15.75v-1.5a3.75 3.75 0 013.75-3.75h3c.257 0 .508.026.75.075V8.25a2.25 2.25 0 00-2.033-2.24L19.282 6H3.5A2.986 2.986 0 012 5.599zM20.75 12h-3a2.25 2.25 0 00-2.25 2.25v1.5A2.25 2.25 0 0017.75 18h3a2.24 2.24 0 001.071-.271l-.09.046c.065-.031.127-.065.188-.102l-.098.056c.064-.034.125-.072.185-.112l-.087.056c.056-.034.11-.07.163-.11l-.076.054c.06-.04.116-.082.171-.128l-.095.074c.057-.041.111-.085.164-.132l-.069.058a2.28 2.28 0 00.164-.148l-.095.09c.05-.044.097-.09.142-.139l-.047.049a2.35 2.35 0 00.135-.147l-.088.098a2.71 2.71 0 00.14-.162l-.052.064a2.26 2.26 0 00.115-.15l-.064.086a2.4 2.4 0 00.124-.175l-.06.09c.035-.05.068-.102.099-.154l-.04.064a2.42 2.42 0 00.103-.178l-.063.114a2.236 2.236 0 00.27-.713l.03-.205.01-.223v-1.5l-.01-.223-.03-.205a2.186 2.186 0 00-.27-.713l.062.114a2.217 2.217 0 00-.101-.178l.039.064a2.278 2.278 0 00-.1-.153l.06.09a2.247 2.247 0 00-.123-.176l.064.086a2.235 2.235 0 00-.115-.15l.051.064a2.265 2.265 0 00-.139-.162l.088.098a2.256 2.256 0 00-.135-.147l.047.049a2.264 2.264 0 00-.142-.139l.095.09a2.276 2.276 0 00-.164-.148l.07.058a2.265 2.265 0 00-.165-.133l.095.075a2.27 2.27 0 00-.17-.128l.075.053a2.264 2.264 0 00-.163-.109l.087.056a2.273 2.273 0 00-.185-.112l.098.056a2.235 2.235 0 00-.187-.102l.09.046a2.225 2.225 0 00-.17-.083l.08.037a2.254 2.254 0 00-.205-.087l.124.05A2.243 2.243 0 0020.75 12zm-2.25 1.5a1.5 1.5 0 110 3 1.5 1.5 0 010-3zm-.75-12H3.5a1.5 1.5 0 00-1.413.994l-.047.16A1.504 1.504 0 003.325 4.49l.175.01H20v-.75a2.25 2.25 0 00-2.033-2.24l-.217-.01z" fill="var(--fill-color1)" /></g><defs></defs></symbol><clipPath id="ic-dashboard-wallet_clip0"><path fill="#fff" transform="translate(.5)" d="M0 0h24v24H0z" /></clipPath></defs></svg>